<svg width="134" height="28" viewBox="0 0 134 28" fill="none" xmlns="http://www.w3.org/2000/svg">
<g clip-path="url(#clip0_517_6497)">
<path d="M17.9881 7.60426L15.9258 9.66598L18.5119 11.1591V13.2371L21.3242 10.4248V9.53424L17.9881 7.60426ZM18.5119 20.2183L14.1572 22.7339L10.6603 24.7552L9.07676 23.8393L7.64575 23.0145L5.12604 21.5585L4.43776 21.1588L3.69917 20.7303L3.53423 20.6349L2.81276 20.2183V11.1591L10.6603 6.62293L11.93 7.3527L13.9881 5.29513L10.6603 3.3776L0 9.53424V21.8475L10.6603 28L21.3242 21.8475V16.7345L18.5119 19.5466V20.2183Z" fill="#197CE0"/>
<path d="M22.4376 1.9879L17.2498 7.17981L15.1881 9.24153L14.5237 9.90595L4.35873 20.0703V20.0667L3.71973 19.6989V16.7306L20.4495 0.000352859L22.4376 1.9879Z" fill="#197CE0"/>
<path d="M16.7633 13.8918L8.3095 22.3496L5.79395 20.8897L14.7753 11.9042L16.7633 13.8918Z" fill="#197CE0"/>
<path d="M23.5379 13.3526L21.3237 15.5673L18.5115 18.3794L16.6308 20.2602L10.6598 23.7031L9.74023 23.1751L18.5115 14.4039L21.3237 11.5915L21.5504 11.365L23.5379 13.3526Z" fill="#197CE0"/>
</g>
<path d="M30.9164 17.5L34.9876 8.08031H36.7039L40.8017 17.5H38.4601L37.6485 15.5043H33.9898L33.2048 17.5H30.9164ZM36.9434 13.7481L35.7859 10.8211L34.6417 13.7481H36.9434ZM47.1908 11.7391L45.8736 13.1228C45.674 12.8434 45.3015 12.6305 44.8891 12.6305C43.8912 12.6305 43.2925 13.2957 43.2925 14.267C43.2925 15.2382 43.8912 15.9034 44.8891 15.9034C45.3281 15.9034 45.6474 15.6773 45.8736 15.4112L47.1908 16.7949C46.5655 17.4335 45.6474 17.6597 44.8891 17.6597C42.8934 17.6597 41.2968 16.3292 41.2968 14.267C41.2968 12.2048 42.8934 10.8743 44.8891 10.8743C45.6474 10.8743 46.5655 11.1005 47.1908 11.7391ZM53.6092 11.7391L52.2921 13.1228C52.0925 12.8434 51.72 12.6305 51.3075 12.6305C50.3097 12.6305 49.711 13.2957 49.711 14.267C49.711 15.2382 50.3097 15.9034 51.3075 15.9034C51.7466 15.9034 52.0659 15.6773 52.2921 15.4112L53.6092 16.7949C52.9839 17.4335 52.0659 17.6597 51.3075 17.6597C49.3118 17.6597 47.7153 16.3292 47.7153 14.267C47.7153 12.2048 49.3118 10.8743 51.3075 10.8743C52.0659 10.8743 52.9839 11.1005 53.6092 11.7391ZM54.0938 14.267C54.0938 12.2048 55.6904 10.8743 57.6861 10.8743C59.6818 10.8743 61.2783 12.2048 61.2783 14.267C61.2783 16.3292 59.6818 17.6597 57.6861 17.6597C55.6904 17.6597 54.0938 16.3292 54.0938 14.267ZM56.0895 14.267C56.0895 15.2382 56.6882 15.9034 57.6861 15.9034C58.6839 15.9034 59.2826 15.2382 59.2826 14.267C59.2826 13.2957 58.6839 12.6305 57.6861 12.6305C56.6882 12.6305 56.0895 13.2957 56.0895 14.267ZM68.6804 11.0339V17.5H66.7645V16.6219H66.7379C66.4718 17.1275 65.8199 17.6597 64.8486 17.6597C62.8263 17.6597 62.4538 16.3292 62.4538 14.5996V11.0339H64.4495V14.2004C64.4495 14.9455 64.4628 15.9034 65.4873 15.9034C66.525 15.9034 66.6847 15.0919 66.6847 14.2537V11.0339H68.6804ZM70.0936 17.5V11.0339H72.0094V11.912H72.0361C72.3021 11.4065 72.9541 10.8743 73.9253 10.8743C75.9476 10.8743 76.3201 12.2048 76.3201 13.9344V17.5H74.3245V14.3335C74.3245 13.5884 74.3111 12.6305 73.2867 12.6305C72.2489 12.6305 72.0893 13.4421 72.0893 14.2803V17.5H70.0936ZM82.1372 11.0339V12.6305H80.381V14.7859C80.381 15.4777 80.4608 15.9833 81.3256 15.9833C81.5385 15.9833 81.9642 15.9567 82.1372 15.797V17.4601C81.6981 17.6197 81.2059 17.6597 80.7402 17.6597C79.4097 17.6597 78.3853 17.1142 78.3853 15.7039V12.6305H77.108V11.0339H78.3853V9.11807H80.381V11.0339H82.1372ZM87.341 17.5V8.08031H90.8401C92.7959 8.08031 94.419 8.70563 94.419 10.9408C94.419 13.1494 92.9156 13.8279 90.9332 13.8279H89.4165V17.5H87.341ZM89.4165 9.83652V12.0717H90.8002C91.5319 12.0717 92.2637 11.8189 92.2637 10.9408C92.2637 9.96957 91.2791 9.83652 90.4809 9.83652H89.4165ZM95.4952 17.5V7.44169H97.4908V17.5H95.4952ZM102.983 17.5V16.6884H102.956C102.517 17.3803 101.719 17.6597 100.907 17.6597C99.6963 17.6597 98.6053 16.9678 98.6053 15.664C98.6053 13.4288 101.319 13.3889 102.983 13.3889C102.983 12.6837 102.397 12.2314 101.705 12.2314C101.053 12.2314 100.508 12.5241 100.082 13.003L99.0178 11.912C99.7495 11.2202 100.814 10.8743 101.865 10.8743C104.193 10.8743 104.819 12.0584 104.819 14.2138V17.5H102.983ZM102.983 14.6661H102.49C101.878 14.6661 100.521 14.7193 100.521 15.5974C100.521 16.0764 101.027 16.3026 101.466 16.3026C102.251 16.3026 102.983 15.8901 102.983 15.0919V14.6661ZM106.071 17.5V11.0339H107.987V11.912H108.013C108.279 11.4065 108.931 10.8743 109.902 10.8743C111.925 10.8743 112.297 12.2048 112.297 13.9344V17.5H110.302V14.3335C110.302 13.5884 110.288 12.6305 109.264 12.6305C108.226 12.6305 108.066 13.4421 108.066 14.2803V17.5H106.071ZM113.71 17.5V11.0339H115.626V11.912H115.653C115.919 11.4065 116.571 10.8743 117.542 10.8743C119.565 10.8743 119.937 12.2048 119.937 13.9344V17.5H117.941V14.3335C117.941 13.5884 117.928 12.6305 116.904 12.6305C115.866 12.6305 115.706 13.4421 115.706 14.2803V17.5H113.71ZM126.073 15.358L127.47 16.3824C126.832 17.194 125.781 17.6597 124.743 17.6597C122.747 17.6597 121.151 16.3292 121.151 14.267C121.151 12.2048 122.747 10.8743 124.743 10.8743C126.606 10.8743 127.776 12.2048 127.776 14.267V14.8923H123.146C123.306 15.6507 123.878 16.1429 124.65 16.1429C125.302 16.1429 125.741 15.8103 126.073 15.358ZM123.146 13.5352H125.781C125.794 12.87 125.275 12.3112 124.557 12.3112C123.679 12.3112 123.2 12.9099 123.146 13.5352ZM128.99 17.5V11.0339H130.986V12.0717H131.012C131.438 11.2867 131.997 10.8743 132.875 10.8743C133.101 10.8743 133.354 10.8876 133.54 10.9408V12.7635C133.261 12.6837 132.981 12.6305 132.689 12.6305C131.172 12.6305 130.986 13.5086 130.986 14.7992V17.5H128.99Z" fill="#197CE0"/>
<defs>
<clipPath id="clip0_517_6497">
<rect width="23.5384" height="28" fill="white"/>
</clipPath>
</defs>
</svg>
