<svg width="50" height="50" viewBox="0 0 50 50" fill="none" xmlns="http://www.w3.org/2000/svg">
<rect x="0.5" y="0.5" width="49" height="49" rx="24.5" fill="white"/>
<rect x="0.5" y="0.5" width="49" height="49" rx="24.5" stroke="#D6D8D9"/>
<path d="M30.4183 18.5179L28.6507 20.2851L30.8674 21.565V23.3461L33.2779 20.9355V20.1722L30.4183 18.5179ZM30.8674 29.33L24.1374 33.2188L22.7801 32.4337L21.5535 31.7267L19.3937 30.4787L18.1707 29.7688L17.4109 29.33V21.565L24.1374 17.6768L25.2257 18.3023L26.9898 16.5387L24.1374 14.8951L15 20.1722V30.7264L24.1374 36L33.2779 30.7264V26.3439L30.8674 28.7543V29.33Z" fill="#197CE0"/>
<path d="M34.2323 13.7036L18.7362 29.2028V29.1997L18.1884 28.8845V26.3402L32.5282 12L34.2323 13.7036Z" fill="#197CE0"/>
<path d="M29.3687 23.9081L22.1225 31.1576L19.9663 29.9062L27.6646 22.2044L29.3687 23.9081Z" fill="#197CE0"/>
<path d="M35.1758 23.4453L29.2553 29.3661L24.1374 32.3172L23.3492 31.8646L33.4721 21.7417L35.1758 23.4453Z" fill="#197CE0"/>
</svg>
