<svg width="50" height="50" viewBox="0 0 50 50" fill="none" xmlns="http://www.w3.org/2000/svg">
<g filter="url(#filter0_d_507_8843)">
<rect x="5" y="3" width="40" height="40" rx="5" fill="white"/>
<path fill-rule="evenodd" clip-rule="evenodd" d="M28.7334 22.0668C30.2827 22.0668 31.5241 20.8161 31.5241 19.2668C31.5241 17.7175 30.2827 16.4668 28.7334 16.4668C27.1841 16.4668 25.9334 17.7175 25.9334 19.2668C25.9334 20.8161 27.1841 22.0668 28.7334 22.0668ZM21.2667 22.0668C22.8161 22.0668 24.0574 20.8161 24.0574 19.2668C24.0574 17.7175 22.8161 16.4668 21.2667 16.4668C19.7174 16.4668 18.4667 17.7175 18.4667 19.2668C18.4667 20.8161 19.7174 22.0668 21.2667 22.0668ZM21.2667 23.9335C19.0921 23.9335 14.7334 25.0255 14.7334 27.2001V28.6001C14.7334 29.1135 15.1534 29.5335 15.6667 29.5335H26.8667C27.3801 29.5335 27.8001 29.1135 27.8001 28.6001V27.2001C27.8001 25.0255 23.4414 23.9335 21.2667 23.9335ZM28.7334 23.9335C28.4627 23.9335 28.1547 23.9521 27.8281 23.9801C27.8467 23.9895 27.8561 24.0081 27.8654 24.0175C28.9294 24.7921 29.6667 25.8281 29.6667 27.2001V28.6001C29.6667 28.9268 29.6014 29.2441 29.4987 29.5335H34.3334C34.8467 29.5335 35.2667 29.1135 35.2667 28.6001V27.2001C35.2667 25.0255 30.9081 23.9335 28.7334 23.9335Z" fill="#1C344F"/>
</g>
<defs>
<filter id="filter0_d_507_8843" x="0" y="0" width="50" height="50" filterUnits="userSpaceOnUse" color-interpolation-filters="sRGB">
<feFlood flood-opacity="0" result="BackgroundImageFix"/>
<feColorMatrix in="SourceAlpha" type="matrix" values="0 0 0 0 0 0 0 0 0 0 0 0 0 0 0 0 0 0 127 0" result="hardAlpha"/>
<feOffset dy="2"/>
<feGaussianBlur stdDeviation="2.5"/>
<feColorMatrix type="matrix" values="0 0 0 0 0.14902 0 0 0 0 0.2 0 0 0 0 0.301961 0 0 0 0.03 0"/>
<feBlend mode="normal" in2="BackgroundImageFix" result="effect1_dropShadow_507_8843"/>
<feBlend mode="normal" in="SourceGraphic" in2="effect1_dropShadow_507_8843" result="shape"/>
</filter>
</defs>
</svg>
